<svg xmlns="http://www.w3.org/2000/svg" width="878.734" height="200.764" viewBox="0 0 878.734 200.764">
  <path id="Path_22178" data-name="Path 22178" d="M71.982-147.312c0,56.358-60.822,65.844-60.822,123.318V0H99.882V-27.9H41.85a21.117,21.117,0,0,1-.279-4.185c0-32.085,61.1-54.963,61.1-116.343,0-31.248-15.624-49.1-45.756-49.1s-45.756,17.856-45.756,49.1v18.972H40.176v-20.925c0-13.95,6.138-19.251,15.9-19.251S71.982-164.889,71.982-147.312ZM121.644-29.574V0h29.574V-29.574Zm80.073-120.807c0-13.95,6.138-19.251,15.9-19.251s15.9,5.3,15.9,19.251V-44.919c0,13.95-6.138,19.251-15.9,19.251s-15.9-5.3-15.9-19.251ZM171.027-46.872c0,31.248,16.461,49.1,46.593,49.1s46.593-17.856,46.593-49.1V-148.428c0-31.248-16.461-49.1-46.593-49.1s-46.593,17.856-46.593,49.1ZM323.361-148.428c0,55.8,59.985,63.333,59.985,103.509,0,13.95-6.138,18.972-15.9,18.972s-15.9-5.022-15.9-18.972v-13.95H322.524v12c0,31.248,15.624,49.1,45.756,49.1s45.756-17.856,45.756-49.1c0-55.8-59.985-63.333-59.985-103.509,0-13.95,5.58-19.251,15.345-19.251s15.345,5.3,15.345,19.251v8.091h29.016v-6.138c0-31.248-15.345-49.1-45.2-49.1S323.361-179.676,323.361-148.428ZM462.3-167.4h53.01v-27.9h-83.7V0h83.7V-27.9H462.3V-85.1h42.129V-113H462.3ZM629.7,0c-3.069-7.254-3.348-14.229-3.348-23.715V-53.847c0-20.367-5.022-35.154-20.367-41.571,13.671-6.417,20.088-19.53,20.088-39.618v-15.345c0-30.132-13.671-44.919-45.477-44.919H534.285V0h30.69V-79.515h10.6c13.95,0,20.088,6.7,20.088,24.831v30.69c0,15.9,1.116,18.972,2.79,23.994ZM579.762-167.4c10.881,0,15.624,6.138,15.624,20.088v19.251c0,15.624-6.975,20.646-18.414,20.646h-12V-167.4ZM646.443,0h30.69V-195.3h-30.69Zm83.7-167.4h53.01v-27.9h-83.7V0h83.7V-27.9h-53.01V-85.1h42.129V-113H730.143Zm68.076,18.972c0,55.8,59.985,63.333,59.985,103.509,0,13.95-6.138,18.972-15.9,18.972s-15.9-5.022-15.9-18.972v-13.95H797.382v12c0,31.248,15.624,49.1,45.756,49.1s45.756-17.856,45.756-49.1c0-55.8-59.985-63.333-59.985-103.509,0-13.95,5.58-19.251,15.345-19.251s15.345,5.3,15.345,19.251v8.091h29.016v-6.138c0-31.248-15.345-49.1-45.2-49.1S798.219-179.676,798.219-148.428Z" transform="translate(-10.66 198.032)" fill="none" stroke="#707070" stroke-width="1"/>
</svg>
